<?xml version="1.0" standalone="no"?>
<!DOCTYPE svg PUBLIC "-//W3C//DTD SVG 20010904//EN"
 "http://www.w3.org/TR/2001/REC-SVG-20010904/DTD/svg10.dtd">
<svg version="1.0" xmlns="http://www.w3.org/2000/svg"
 width="512.000000pt" height="512.000000pt" viewBox="0 0 512.000000 512.000000"
 preserveAspectRatio="xMidYMid meet">

<g transform="translate(0.000000,512.000000) scale(0.100000,-0.100000)"
fill="#000000" stroke="none">
<path d="M2720 4335 c0 -9 -9 -15 -22 -15 -13 0 -44 -16 -70 -35 l-47 -35 -3
-112 -3 -113 -22 48 c-21 46 -63 107 -63 93 0 -4 -7 0 -16 8 -8 9 -20 14 -25
11 -5 -4 -9 -1 -9 5 0 6 -4 9 -9 6 -5 -4 -12 0 -14 6 -4 8 -6 7 -6 -4 -1 -9
15 -26 34 -38 19 -12 35 -25 34 -28 0 -4 -27 -29 -60 -55 l-59 -49 -1 -66 c-1
-51 -3 -59 -8 -32 -7 39 -17 58 -43 78 -14 11 -25 7 -77 -30 -66 -47 -70 -56
-72 -143 0 -43 -3 -54 -9 -40 -5 11 -9 32 -9 47 -1 15 -10 36 -22 47 -20 19
-21 19 -65 -6 -24 -14 -58 -38 -74 -55 -28 -27 -30 -35 -30 -99 0 -39 -5 -79
-10 -89 -16 -30 3 -31 51 -5 24 14 100 55 169 91 69 37 150 80 180 96 32 17
45 21 31 10 -32 -26 -433 -242 -449 -242 -7 0 -12 -5 -12 -12 0 -6 -3 -9 -6
-5 -7 7 -44 -9 -117 -53 -98 -59 -109 -65 -189 -109 -79 -43 -107 -50 -43 -11
l35 22 0 83 c0 115 -10 121 -91 56 -35 -28 -67 -51 -71 -51 -4 0 -8 -21 -8
-47 -1 -27 -5 -68 -10 -93 -5 -28 -5 -47 2 -51 5 -3 -5 -12 -22 -19 -38 -16
-50 -43 -50 -114 0 -52 0 -52 45 -74 56 -27 63 -43 36 -80 -28 -40 -42 -206
-17 -215 39 -15 50 3 61 108 10 102 11 102 64 120 42 14 49 20 53 45 5 35 5
35 -26 15 -21 -14 -24 -14 -30 0 -4 11 12 27 57 55 34 22 72 40 83 40 26 0 33
-27 35 -153 2 -85 1 -89 -28 -120 -29 -30 -31 -39 -38 -131 -5 -75 -4 -100 6
-106 10 -7 10 -23 0 -81 -6 -40 -13 -75 -15 -77 -2 -2 -33 15 -69 37 -61 37
-190 104 -157 81 8 -6 56 -33 105 -61 114 -64 140 -88 131 -123 -3 -14 -11
-26 -16 -26 -10 0 -259 128 -649 334 -79 41 -155 85 -167 97 -21 20 -24 20
-24 5 0 -9 12 -24 27 -32 74 -40 781 -407 801 -415 13 -5 22 -17 22 -30 0 -17
-4 -20 -23 -15 -26 6 -667 332 -709 360 -16 11 -28 14 -28 7 0 -6 4 -11 8 -11
5 0 24 -21 42 -47 19 -27 40 -52 47 -58 9 -8 14 -105 19 -395 7 -357 2 -511
-14 -495 -4 4 -10 50 -13 103 l-6 97 -1 -78 c-2 -59 -5 -76 -14 -71 -10 6 -10
4 0 -7 29 -31 5 -87 -30 -68 -36 19 -17 0 31 -30 26 -17 70 -38 97 -46 27 -8
72 -29 100 -47 104 -66 204 -139 204 -148 0 -6 10 -10 23 -10 25 0 102 -39
164 -83 42 -29 42 -29 106 -17 58 12 68 11 103 -6 21 -10 39 -26 39 -34 0 -8
-31 -33 -69 -56 -77 -47 -96 -66 -96 -101 0 -15 -6 -23 -16 -23 -24 0 -84 39
-84 55 0 17 -27 27 -34 12 -4 -11 -10 47 -7 66 1 5 -3 6 -9 2 -6 -3 -8 -11 -5
-16 3 -5 -1 -6 -9 -3 -9 3 -16 2 -16 -4 0 -12 -18 -10 -47 6 -13 7 -23 10 -23
7 0 -5 -29 17 -56 43 -8 7 -14 27 -14 43 0 34 -20 40 -21 7 0 -16 -4 -11 -12
15 -13 42 -27 40 -27 -4 l0 -27 -67 35 c-38 20 -71 41 -75 47 -4 6 -8 7 -8 2
0 -22 -29 31 -30 54 0 22 -1 23 -16 8 -21 -20 -70 -6 -79 23 -4 11 -10 17 -15
14 -4 -3 -13 2 -20 10 -7 8 -16 12 -21 9 -5 -3 -9 10 -10 28 l-1 33 -14 -32
c-14 -33 -32 -47 -20 -17 3 8 2 12 -4 9 -5 -3 -45 12 -89 34 -67 34 -80 45
-84 68 -3 20 -4 16 -6 -14 l-1 -42 108 -64 c59 -35 154 -89 212 -119 58 -31
170 -90 249 -132 319 -170 375 -198 398 -193 13 2 23 1 23 -3 0 -4 12 -6 28
-5 32 2 56 -9 98 -45 35 -30 778 -402 834 -418 40 -10 98 -7 150 10 44 13 212
99 222 113 4 5 8 7 8 3 0 -4 17 2 38 14 123 70 326 169 338 164 8 -3 12 -2 9
4 -7 11 29 32 39 23 3 -3 6 -1 6 6 0 8 8 11 20 8 11 -3 18 0 17 7 -1 6 6 10
15 10 10 -1 16 2 13 6 -7 11 51 33 64 25 7 -4 8 1 4 12 -3 10 -2 15 2 10 5 -4
19 0 32 8 13 9 23 13 23 10 0 -3 10 0 23 7 12 7 25 11 30 10 4 -1 7 3 7 9 0 5
5 7 10 4 6 -3 10 -1 10 5 0 6 5 8 10 5 6 -3 10 -1 10 5 0 6 4 9 9 6 5 -3 14 1
21 9 7 8 19 15 26 15 8 0 14 5 14 11 0 7 9 9 21 6 12 -3 18 -3 15 0 -8 9 15
34 25 27 5 -3 9 0 9 7 0 8 4 8 15 -1 13 -11 14 -10 9 5 -5 12 -4 16 3 12 6 -4
14 0 17 9 3 8 10 12 16 9 5 -3 10 -1 10 5 0 6 5 8 10 5 6 -3 10 -1 10 5 0 6 5
8 10 5 6 -3 10 -2 10 2 0 10 90 58 103 55 4 -1 7 3 7 9 0 5 4 8 9 4 5 -3 13 0
16 6 4 5 14 8 22 4 13 -4 14 -3 4 9 -10 12 -8 14 14 12 19 -3 23 0 15 10 -9 9
-5 12 14 10 18 -2 23 1 18 12 -3 10 -1 13 6 8 7 -4 12 -2 12 4 0 6 5 8 10 5 6
-3 10 -1 10 4 0 6 7 11 15 11 8 0 15 5 15 11 0 6 7 8 16 5 10 -4 13 -2 8 6 -5
8 0 9 15 5 13 -3 20 -3 17 0 -8 9 15 34 25 27 5 -3 9 -1 9 5 0 5 9 13 21 16
12 4 30 14 40 24 11 9 22 15 24 14 18 -10 82 86 68 101 -4 4 -6 31 -4 60 3 66
-11 77 -44 38 -14 -16 -55 -45 -92 -63 -37 -19 -72 -39 -78 -45 -20 -23 -154
-96 -164 -89 -6 3 -15 14 -21 24 -7 14 -4 23 13 37 21 19 21 19 8 -1 -8 -12
-4 -10 10 5 43 45 79 63 113 56 22 -4 27 -3 16 4 -12 8 -10 15 16 42 59 62 89
100 87 109 -2 5 9 4 23 -1 48 -19 49 -10 2 20 -50 31 -71 39 -50 18 18 -18 14
-30 -8 -23 -11 3 -20 3 -20 -2 0 -4 -16 -8 -36 -8 -38 0 -37 2 22 43 16 11 16
12 2 8 -13 -4 -19 3 -24 32 -4 20 -9 42 -13 47 -3 6 -6 19 -6 30 0 11 -6 25
-14 31 -10 8 -11 13 -2 18 8 5 8 13 1 27 -6 10 -8 19 -4 19 3 0 0 8 -7 17 -8
9 -9 14 -3 10 7 -4 12 2 12 18 0 14 -3 23 -7 21 -5 -4 -6 140 -1 154 1 3 2 8
1 13 0 4 5 7 11 7 9 0 8 4 -2 10 -13 9 -13 10 0 10 12 0 12 2 2 9 -18 11 -17
20 5 36 10 7 15 17 10 21 -4 4 -7 2 -7 -4 0 -7 -3 -12 -7 -12 -5 0 -8 25 -9
55 0 32 3 50 8 43 4 -7 8 -10 9 -5 3 14 7 27 9 30 7 9 6 54 -3 65 -7 9 -6 16
2 25 10 9 11 8 5 -8 -4 -11 -4 -17 0 -14 12 11 15 48 5 55 -6 4 -6 11 2 20 16
20 5 28 -20 14 -28 -14 -26 -6 7 36 15 18 28 46 28 61 3 43 3 45 14 38 6 -3
10 -3 10 2 0 4 13 14 29 21 20 9 31 22 35 44 9 45 7 528 -2 528 -4 0 -39 -19
-77 -43 l-70 -42 -10 -100 c-5 -55 -13 -105 -18 -112 -5 -9 0 -10 22 -3 17 5
36 12 43 16 7 4 -16 -20 -51 -52 -35 -32 -72 -64 -83 -70 -10 -5 -15 -14 -11
-19 4 -4 2 -5 -4 -1 -7 4 -13 2 -13 -4 0 -6 -4 -8 -10 -5 -5 3 -10 1 -10 -5 0
-6 -4 -8 -10 -5 -5 3 -10 1 -10 -5 0 -6 -4 -8 -10 -5 -5 3 -10 1 -10 -5 0 -6
-4 -8 -10 -5 -5 3 -10 1 -10 -5 0 -6 -4 -8 -10 -5 -5 3 -10 1 -10 -5 0 -6 -5
-8 -10 -5 -6 3 -13 -1 -16 -9 -3 -9 -10 -14 -14 -11 -5 3 -13 -3 -19 -12 -6
-10 -11 -14 -11 -10 0 9 -93 -43 -98 -55 -2 -5 -7 -6 -12 -3 -5 3 -16 -2 -24
-11 -9 -8 -16 -12 -16 -7 0 4 -7 -1 -15 -11 -8 -11 -15 -16 -15 -12 0 5 -10
-4 -22 -20 -13 -16 -22 -33 -20 -38 2 -5 -4 -3 -14 4 -14 12 -18 12 -29 -3 -6
-9 -16 -13 -21 -9 -5 4 -6 3 -2 -2 4 -5 3 -17 -2 -27 -7 -12 -6 -20 2 -25 6
-4 8 -3 5 3 -3 5 0 10 8 10 11 0 12 -4 4 -14 -6 -7 -8 -13 -4 -13 4 0 2 -7 -5
-16 -11 -12 -11 -15 1 -12 8 2 17 8 21 13 5 6 8 5 8 -2 0 -14 -50 -43 -74 -43
-8 0 -26 5 -40 11 -20 10 -28 25 -41 85 -9 41 -20 76 -24 79 -5 2 -6 24 -4 47
6 53 -18 142 -40 146 -22 5 -57 -29 -57 -55 0 -24 -100 -113 -127 -113 -8 0
-13 -7 -11 -17 2 -9 -11 -30 -27 -47 -17 -17 -41 -44 -53 -61 -14 -19 -24 -26
-29 -19 -12 17 -49 34 -76 34 -32 0 -51 -23 -45 -55 3 -13 1 -22 -4 -19 -6 4
-6 -9 -2 -31 4 -26 3 -36 -4 -31 -6 4 -8 -2 -5 -14 3 -11 0 -34 -7 -50 -7 -17
-11 -33 -8 -35 6 -6 201 87 236 112 21 14 22 14 16 -1 -3 -9 -9 -14 -13 -11
-4 2 -19 -7 -34 -21 -15 -14 -27 -21 -27 -17 0 4 -10 -3 -23 -17 -12 -14 -18
-20 -13 -13 15 22 -2 14 -30 -14 -15 -16 -22 -20 -14 -10 11 15 11 17 -4 11
-11 -4 -16 -14 -13 -25 3 -11 1 -17 -3 -14 -5 3 -12 1 -15 -5 -5 -8 -11 -8
-20 0 -10 9 -16 7 -24 -8 -6 -11 -7 -23 -3 -27 4 -3 1 -5 -7 -3 -8 1 -20 -8
-28 -22 -7 -14 -13 -20 -13 -15 0 6 -7 1 -15 -9 -8 -11 -15 -16 -15 -10 0 5
-7 0 -15 -10 -8 -11 -15 -17 -15 -13 0 9 -93 -37 -133 -65 -15 -11 -24 -24
-21 -30 4 -7 2 -8 -4 -4 -6 3 -16 -2 -22 -13 -7 -13 -7 -22 0 -26 5 -3 10 -12
10 -18 0 -8 -3 -8 -9 1 -10 17 -19 -28 -20 -112 -1 -32 -4 -63 -8 -69 -4 -6 4
-7 21 -3 14 3 26 3 26 -1 0 -15 -41 -74 -49 -71 -66 26 -271 145 -279 162 -9
17 -11 18 -11 4 -1 -10 -4 -18 -8 -18 -22 0 -289 159 -302 179 -15 23 -14 23
4 13 11 -6 56 -28 100 -48 130 -60 294 -138 388 -184 48 -24 89 -41 92 -38 2
2 -67 39 -154 82 -145 71 -221 122 -221 147 0 5 -11 15 -25 21 -20 9 -31 8
-51 -3 -24 -12 -32 -11 -102 26 -51 27 -82 51 -95 73 -11 18 -28 37 -38 43
-11 5 -20 20 -20 32 -1 17 -2 18 -6 5 -2 -10 -6 -18 -8 -18 -8 0 -122 69 -143
87 -12 10 -27 33 -32 51 -8 30 -7 33 8 27 9 -3 3 7 -15 22 -36 32 -45 77 -43
223 0 47 -3 118 -8 157 -8 72 -8 73 12 58 12 -8 65 -38 119 -65 l97 -50 0 32
c0 18 4 38 8 44 8 13 86 54 101 54 6 0 37 -17 69 -37 33 -21 68 -43 78 -49 16
-10 14 -14 -25 -50 l-44 -39 5 -150 c5 -149 19 -218 39 -198 5 5 18 32 28 59
11 28 27 53 40 59 12 5 19 16 16 23 -3 7 -1 10 4 7 6 -3 13 1 18 8 13 22 151
71 196 69 9 0 15 2 13 6 -2 4 12 9 32 10 96 8 153 2 237 -23 50 -15 98 -30
109 -33 16 -4 17 -1 11 29 -4 19 -11 38 -15 42 -4 5 3 19 16 32 13 13 24 29
24 35 0 9 -29 15 -53 11 -4 -1 -4 7 2 17 6 12 5 25 -4 42 l-13 25 1 -27 c1
-14 6 -23 12 -20 6 3 4 -2 -4 -11 -7 -9 -16 -17 -19 -17 -3 0 -2 3 1 7 4 3 -1
15 -10 26 -10 12 -12 17 -4 12 9 -5 12 -3 9 6 -3 8 -10 13 -16 12 -12 -3 -11
20 2 25 4 2 11 0 14 -4 4 -4 1 -4 -7 1 -10 5 -12 4 -7 -4 4 -6 12 -9 17 -5 6
4 6 10 0 18 -6 7 -7 17 -3 21 4 5 2 5 -4 2 -6 -4 -16 5 -22 18 -6 13 -29 36
-52 51 -73 48 -42 37 96 -36 144 -76 176 -82 49 -9 -41 23 -75 47 -75 51 0 5
-4 6 -10 3 -5 -3 -10 0 -11 7 0 13 -3 42 -14 146 l-5 53 40 -21 c54 -28 51
-18 -5 14 -25 15 -45 31 -45 37 0 6 -4 7 -10 4 -5 -3 -10 -1 -10 4 0 6 -8 11
-17 11 -16 0 -16 2 -3 11 12 9 11 10 -6 6 -17 -3 -20 1 -19 27 0 17 5 37 9 45
7 11 5 13 -6 9 -8 -4 -15 0 -15 8 0 7 5 11 11 8 6 -3 2 2 -8 10 -11 9 -16 16
-11 16 5 0 0 7 -11 15 -16 13 -13 13 16 -1 23 -10 31 -12 23 -3 -8 7 -13 38
-13 72 0 44 3 58 13 54 91 -41 137 -57 159 -57 38 0 246 -109 254 -132 3 -10
10 -16 15 -12 10 6 91 -36 357 -183 174 -96 163 -95 279 -32 l73 41 0 111 0
111 -30 -34 c-24 -29 -29 -44 -30 -87 0 -35 -4 -54 -12 -54 -45 -6 -88 -3 -88
5 0 5 -2 7 -5 4 -3 -3 -2 -13 1 -22 4 -11 9 -13 13 -7 4 6 11 3 19 -9 10 -16
9 -18 -9 -15 -12 2 -28 12 -36 22 -8 10 -11 12 -7 4 5 -10 3 -12 -5 -7 -7 5
-10 15 -7 25 5 12 2 11 -9 -3 -14 -18 -20 -15 -16 8 1 5 -5 4 -13 -3 -13 -11
-17 -10 -22 3 -3 9 -10 16 -16 16 -5 0 -6 -5 -2 -12 4 -7 3 -8 -4 -4 -7 4 -12
13 -12 21 0 8 -7 11 -20 8 -11 -3 -20 -1 -20 5 0 6 -9 9 -20 7 -11 -2 -20 0
-20 6 0 5 -8 9 -18 9 -10 0 -33 11 -52 25 -19 14 -39 25 -45 25 -14 0 -240
116 -277 141 -14 11 -31 19 -37 19 -6 0 -11 5 -11 12 0 6 -3 9 -6 5 -4 -3 -13
1 -21 9 -8 8 -19 12 -24 9 -5 -4 -9 -2 -9 3 0 8 -38 28 -70 36 -3 1 -16 8 -30
16 -14 7 -25 11 -26 9 -2 -8 -187 106 -191 118 -3 7 -9 10 -14 7 -5 -3 -9 2
-9 11 0 11 5 15 15 11 21 -8 19 14 -2 31 -16 12 -15 12 9 2 15 -6 24 -17 22
-24 -3 -7 -1 -16 5 -20 7 -3 8 0 5 9 -8 22 -2 20 66 -14 84 -42 75 -30 -12 17
-108 58 -159 93 -153 102 2 5 -3 12 -12 15 -11 5 -13 10 -6 17 15 15 4 55 -23
80 -25 23 -31 53 -14 64 6 3 10 -1 10 -9 0 -14 36 -46 51 -46 4 0 10 49 14
109 l7 109 44 17 c36 13 48 14 59 5 13 -11 15 -1 15 73 0 47 -3 92 -6 101 -8
20 -24 21 -24 1z m128 -814 c7 -20 -23 -11 -108 35 -87 47 -120 70 -120 86 0
12 223 -107 228 -121z m413 -198 c191 -97 358 -185 371 -195 l23 -19 -25 6
c-39 10 -167 76 -549 282 -85 46 -158 83 -162 83 -4 0 -11 5 -14 10 -3 6 -3
10 1 10 4 0 163 -80 355 -177z m-1771 32 c0 -2 -10 -9 -22 -15 -22 -11 -22
-10 -4 4 21 17 26 19 26 11z m1286 -176 c4 -6 0 -16 -9 -21 -9 -5 -14 -15 -11
-23 4 -8 11 -12 18 -8 6 3 6 1 -1 -8 -15 -15 -17 -33 -4 -25 14 9 6 -23 -9
-37 -12 -10 -12 -9 -2 5 8 10 9 18 3 22 -5 4 -10 15 -10 26 -1 11 -1 29 -2 39
0 10 -12 29 -27 42 l-27 24 24 -27 c14 -16 21 -28 18 -28 -4 0 -10 0 -14 0 -5
0 -8 3 -8 8 0 4 -11 22 -24 40 l-24 34 51 -26 c28 -14 54 -31 58 -37z m-586
46 c0 -2 -10 -9 -22 -15 -22 -11 -22 -10 -4 4 21 17 26 19 26 11z m-90 -50 c0
-2 -10 -9 -22 -15 -22 -11 -22 -10 -4 4 21 17 26 19 26 11z m1650 -15 c0 -5
-2 -10 -4 -10 -3 0 -8 5 -11 10 -3 6 -1 10 4 10 6 0 11 -4 11 -10z m-840 -406
c0 -8 -19 -13 -24 -6 -3 5 1 9 9 9 8 0 15 -2 15 -3z m783 -117 c-3 -4 -10 -3
-17 2 -7 6 -16 7 -21 3 -4 -4 -2 3 6 15 12 20 14 20 25 5 7 -9 10 -20 7 -25z
m-2473 -113 c136 -73 179 -104 130 -91 -21 5 -20 3 8 -23 26 -23 32 -37 33
-72 1 -42 16 -115 18 -90 0 6 8 12 17 12 12 0 14 8 8 45 -3 25 -3 56 0 69 7
26 24 28 103 11 30 -7 32 -11 38 -59 3 -28 7 -242 8 -476 1 -234 5 -427 9
-430 4 -3 -1 -16 -11 -29 l-18 -24 -77 44 c-71 40 -76 45 -76 76 0 40 10 41
63 4 47 -32 87 -54 87 -48 0 6 -132 93 -152 100 -9 3 -18 18 -21 34 -3 20 -5
16 -6 -17 -2 -25 -6 -56 -10 -70 -12 -40 -24 431 -16 618 5 120 4 171 -4 176
-6 4 -11 2 -11 -4 0 -6 -72 26 -160 72 l-160 83 0 53 c0 41 6 61 23 82 12 16
25 29 30 29 4 1 70 -33 147 -75z m2500 72 c0 -2 -7 -7 -16 -10 -8 -3 -12 -2
-9 4 6 10 25 14 25 6z m-670 -76 c0 -11 -2 -20 -4 -20 -2 0 -6 9 -9 20 -3 11
-1 20 4 20 5 0 9 -9 9 -20z m560 -36 c0 -32 -4 -44 -14 -44 -19 0 -24 9 -32
57 -6 40 -6 41 20 36 23 -5 26 -10 26 -49z m200 30 c0 -8 -19 -13 -24 -6 -3 5
1 9 9 9 8 0 15 -2 15 -3z m272 -8 c-4 -6 -7 -14 -8 -18 -1 -5 -2 -11 -3 -14
-2 -11 -31 18 -31 30 0 6 5 4 10 -4 8 -13 14 -8 12 11 -1 3 5 6 13 6 8 0 11
-5 7 -11z m-306 -8 c4 -6 3 -8 -3 -5 -6 4 -14 0 -17 -8 -3 -8 -9 -15 -13 -14
-18 3 -31 -2 -53 -23 -14 -13 -26 -22 -27 -20 -8 6 -56 -34 -62 -52 -8 -19 -9
-19 -36 9 l-27 30 38 5 c22 3 73 25 114 48 88 49 77 45 86 30z m274 -42 c0 -7
-4 -6 -9 2 -6 10 -10 8 -14 -8 -3 -12 -10 -19 -16 -16 -5 3 -17 -1 -25 -10
-10 -10 -16 -11 -16 -4 0 7 -9 2 -20 -11 -10 -13 -19 -20 -20 -15 0 5 -8 2
-19 -8 -17 -16 -18 -15 -17 14 1 17 6 30 11 31 6 0 18 8 28 16 9 9 17 13 17 9
0 -4 10 0 22 8 30 21 38 20 39 -6 0 -22 1 -22 8 -3 5 11 6 25 3 30 -3 6 2 4
11 -4 9 -7 17 -19 17 -25z m-173 -63 c0 -16 -1 -20 -4 -10 -2 9 -8 15 -13 12
-4 -3 -6 -14 -3 -24 6 -24 -33 -49 -50 -32 -7 7 -5 12 6 17 9 3 14 10 11 15
-3 5 3 6 13 2 10 -3 15 -2 10 2 -5 6 18 45 27 45 1 0 2 -12 3 -27z m-1980 -56
c80 -42 113 -70 100 -84 -4 -4 -171 90 -194 109 -14 11 -18 32 -5 26 4 -1 48
-25 99 -51z m2093 11 c0 -4 -13 -14 -30 -23 -16 -9 -30 -12 -30 -8 0 5 -4 3
-8 -3 -4 -6 -29 -23 -55 -39 l-49 -28 4 24 c3 24 93 93 109 83 4 -2 10 0 14 6
4 6 11 8 16 5 5 -4 9 0 9 7 0 9 3 9 10 -2 5 -8 10 -18 10 -22z m40 28 c0 -2
-8 -10 -17 -17 -16 -13 -17 -12 -4 4 13 16 21 21 21 13z m-2781 -115 c21 -19
31 -41 36 -74 5 -31 14 -51 26 -58 21 -11 25 -69 9 -149 -5 -28 -5 -47 2 -51
6 -4 6 -32 -1 -80 -8 -59 -7 -77 3 -87 11 -11 11 -24 -2 -73 -17 -69 -24 -71
-99 -31 -41 21 -53 32 -54 52 -1 17 -3 19 -6 8 -2 -10 -8 -18 -13 -18 -22 0
-39 36 -50 102 -6 40 -13 79 -15 86 -6 17 5 15 44 -9 18 -11 35 -18 38 -16 2
3 -12 14 -32 25 -31 19 -35 26 -35 64 -1 24 -5 62 -9 85 -8 41 -7 42 13 31 18
-9 19 -9 10 3 -7 8 -14 53 -15 100 l-4 87 30 -15 30 -14 -24 19 c-30 24 -39
79 -13 84 21 4 91 -34 131 -71z m685 -13 l59 -30 -5 -424 c-3 -233 -8 -427
-11 -430 -8 -8 -64 24 -80 46 -7 11 -16 18 -19 15 -2 -3 -4 5 -3 18 3 31 -5
48 -19 40 -6 -4 -4 2 4 12 14 17 13 18 -5 11 -16 -6 -17 -5 -8 5 12 12 -3 50
-45 109 -16 23 -15 23 23 -5 36 -26 38 -27 18 -5 -14 17 -23 45 -28 85 -3 33
-8 71 -11 83 -3 13 -1 21 4 18 5 -3 5 19 1 50 -8 61 -10 314 -3 314 3 0 15 -5
27 -11 16 -7 14 -4 -5 11 -25 20 -28 28 -28 85 l0 64 38 -16 c20 -8 63 -29 96
-45z m1677 -33 c-9 -38 -9 -38 -10 -9 -1 17 2 47 6 65 7 30 8 31 11 9 1 -14
-1 -43 -7 -65z m161 -1 c-3 -16 -1 -25 5 -21 5 3 10 0 10 -8 0 -8 -4 -12 -8
-9 -4 2 -10 -17 -12 -43 -3 -38 -4 -33 -5 23 -2 59 2 84 13 84 1 0 0 -12 -3
-26z m-529 -14 c-5 -20 -80 -73 -123 -85 -23 -7 -24 -7 -9 16 12 17 119 88
136 89 0 0 -1 -9 -4 -20z m417 -11 c-14 -12 -25 -26 -25 -33 -1 -6 -6 -10 -12
-9 -7 2 -14 -16 -17 -40 -12 -87 -13 -90 -15 -25 -1 43 -5 68 -13 71 -7 3 -4
6 7 6 11 1 36 12 55 26 43 30 54 32 20 4z m-1600 -495 c0 -307 -3 -463 -10
-459 -15 9 -8 925 7 925 1 0 3 -210 3 -466z m-30 221 c0 -359 -11 -632 -27
-632 -7 0 -13 4 -13 8 0 9 -61 33 -75 30 -5 -2 -7 1 -3 5 5 4 -1 13 -12 21
-11 8 -25 23 -30 34 -9 17 0 14 59 -16 39 -19 73 -35 76 -35 4 0 6 125 5 278
-2 455 -1 539 10 522 5 -8 10 -103 10 -215z m232 109 c79 -42 145 -79 148 -83
3 -4 59 -31 125 -60 66 -30 125 -58 132 -63 17 -14 33 -126 26 -189 -3 -31 -2
-59 3 -62 5 -3 7 -44 4 -92 -3 -47 -1 -90 4 -95 5 -5 2 -20 -8 -35 -9 -14 -14
-30 -11 -35 10 -16 6 -313 -4 -323 -5 -5 -25 0 -50 12 -58 30 -51 18 9 -15 96
-52 37 -79 -65 -30 -33 16 -60 27 -61 25 0 -2 -8 4 -18 14 -10 9 -21 15 -26
12 -5 -3 -10 -1 -12 4 -1 5 -10 11 -18 13 -8 2 -21 9 -28 16 -8 7 -17 10 -22
7 -5 -3 -10 -1 -12 3 -1 5 -30 23 -63 41 -181 100 -215 125 -215 155 0 28 1
28 24 13 41 -27 442 -237 452 -237 5 1 -8 10 -28 21 -26 13 -38 27 -39 42 -1
18 -2 18 -6 4 -3 -10 -8 -17 -11 -15 -87 41 -155 83 -162 101 -6 16 -9 17 -9
5 -1 -13 -10 -11 -56 14 -44 24 -55 35 -56 56 -2 24 -2 24 -6 5 -4 -20 -7 -22
-26 -12 -12 6 -34 23 -49 37 -27 25 -28 30 -28 125 0 88 2 98 16 93 14 -5 15
-4 4 9 -16 19 -26 595 -10 595 5 0 74 -34 152 -76z m465 14 c-3 -8 -6 -5 -6 6
-1 11 2 17 5 13 3 -3 4 -12 1 -19z m998 12 c-9 -14 -124 -80 -138 -79 -7 0 -6
3 2 6 8 3 42 23 75 44 66 42 70 44 61 29z m-2515 -402 c133 -75 142 -83 107
-99 -23 -10 -34 -7 -108 36 -101 60 -139 91 -139 116 0 24 8 21 140 -53z
m1936 -16 c0 -10 -6 -19 -13 -19 -15 0 -15 0 -7 21 8 22 20 20 20 -2z m479
-22 c-3 -5 -12 -10 -18 -10 -7 0 -6 4 3 10 19 12 23 12 15 0z m-546 -28 c-33
-25 -166 -102 -175 -102 -10 0 178 118 190 119 5 1 -2 -7 -15 -17z m999 -62
c17 -11 32 -23 32 -28 0 -14 -180 -104 -195 -98 -20 7 -19 42 1 50 8 3 12 10
9 16 -3 6 0 7 9 4 10 -4 20 3 27 20 11 23 14 25 29 11 14 -13 16 -12 17 8 2
15 0 18 -6 9 -7 -11 -9 -11 -14 2 -12 30 45 34 91 6z m-198 -120 c17 -12 22
-22 15 -29 -19 -18 -154 -91 -170 -91 -8 0 -15 -4 -15 -8 0 -4 -29 -23 -63
-42 l-64 -34 -48 20 c-27 11 -50 25 -53 32 -4 13 57 44 70 36 5 -3 8 -1 8 5 0
10 19 9 38 -3 8 -5 11 -3 10 6 -5 20 40 21 70 2 27 -17 27 -17 9 3 -17 20 -17
21 11 32 15 6 55 30 87 51 33 22 62 40 65 40 3 0 16 -9 30 -20z m-1940 -157
c47 -25 103 -55 125 -65 74 -35 408 -210 553 -289 l73 -41 49 18 c41 15 54 16
76 5 23 -10 26 -10 16 2 -9 11 2 20 59 47 38 19 79 42 89 53 11 10 20 15 20
12 0 -3 17 6 39 19 21 14 54 31 74 39 32 14 38 13 66 -4 17 -10 31 -24 31 -32
0 -11 -51 -42 -238 -145 -37 -19 -71 -32 -83 -29 -11 3 -16 1 -13 -5 7 -11
-11 -26 -99 -80 -51 -31 -71 -38 -80 -29 -23 23 -37 12 -37 -28 0 -63 -6 -71
-43 -58 -18 6 -60 26 -94 45 -58 31 -63 37 -63 67 0 19 -4 37 -10 40 -6 4 -10
-7 -10 -26 0 -39 -7 -34 -25 18 -15 43 -44 51 -59 17 -9 -20 -11 -20 -78 15
-66 35 -68 37 -69 76 l-1 40 -12 -34 c-10 -29 -14 -32 -26 -19 -8 8 -18 15
-22 17 -4 1 -30 12 -58 24 -48 21 -50 24 -51 62 l-1 40 -10 -31 -10 -31 -76
33 c-41 18 -88 42 -103 53 -15 12 -35 18 -43 15 -20 -8 -20 6 -1 114 16 89 29
122 48 122 7 0 50 -21 97 -47z m1488 -61 c45 -25 29 -41 -137 -136 -60 -35
-64 -36 -82 -20 -11 9 -19 22 -19 28 1 17 32 50 67 71 18 10 29 23 26 29 -4 6
2 4 12 -4 11 -9 16 -10 11 -2 -5 8 -1 12 11 12 10 0 29 9 42 19 27 21 35 21
69 3z m-693 -2 c-3 -5 -12 -10 -18 -10 -7 0 -6 4 3 10 19 12 23 12 15 0z"/>
<path d="M1050 2495 c0 -2 18 -14 40 -25 50 -25 53 -19 4 9 -36 22 -44 24 -44
16z"/>
<path d="M1221 2406 c14 -15 119 -74 119 -67 0 5 -28 23 -62 41 -35 18 -60 30
-57 26z"/>
<path d="M1393 2020 c0 -36 2 -50 4 -32 2 17 2 47 0 65 -2 17 -4 3 -4 -33z"/>
<path d="M3991 2454 c0 -11 3 -14 6 -6 3 7 2 16 -1 19 -3 4 -6 -2 -5 -13z"/>
<path d="M3965 2450 c-4 -6 -10 -8 -15 -5 -4 3 -13 -2 -20 -10 -7 -8 -15 -13
-19 -11 -4 3 -7 -4 -7 -15 0 -19 1 -18 19 3 17 21 18 21 13 3 l-6 -20 16 20
c8 11 20 19 25 18 5 -2 9 4 9 12 0 17 -6 19 -15 5z"/>
<path d="M3820 2350 c-8 -5 -10 -10 -5 -10 6 0 17 5 25 10 8 5 11 10 5 10 -5
0 -17 -5 -25 -10z"/>
<path d="M3935 2344 c-10 -8 -22 -11 -27 -8 -5 3 -7 0 -6 -7 2 -7 -3 -13 -11
-14 -8 0 -16 -7 -18 -15 -4 -13 -3 -13 6 0 6 8 11 11 11 6 0 -5 8 -2 18 7 10
10 22 14 25 10 4 -3 7 -1 7 5 0 7 3 11 8 11 17 -3 32 2 32 9 0 13 -25 10 -45
-4z"/>
<path d="M2202 1990 c0 -14 2 -19 5 -12 2 6 2 18 0 25 -3 6 -5 1 -5 -13z"/>
<path d="M2202 1885 c0 -16 2 -22 5 -12 2 9 2 23 0 30 -3 6 -5 -1 -5 -18z"/>
<path d="M2316 1401 c-3 -5 1 -11 9 -14 9 -4 12 -1 8 9 -6 16 -10 17 -17 5z"/>
<path d="M2124 1120 c0 -10 6 -16 13 -13 7 3 13 9 13 13 0 4 -6 10 -13 13 -7
3 -13 -3 -13 -13z"/>
<path d="M2411 4292 c-1 -30 4 -44 14 -49 9 -3 18 -3 22 0 9 9 -7 78 -17 72
-4 -3 -11 1 -13 7 -3 7 -6 -6 -6 -30z m26 -24 c4 -28 -6 -18 -12 12 -2 12 -1
20 2 16 4 -4 8 -16 10 -28z"/>
<path d="M2460 4272 c0 -11 4 -23 8 -26 10 -6 9 30 -1 40 -4 4 -7 -2 -7 -14z"/>
<path d="M2857 4027 c-36 -30 -38 -35 -41 -99 l-4 -66 24 10 c13 6 21 14 19
19 -3 4 0 11 6 15 8 4 9 3 5 -5 -6 -9 0 -10 19 -5 19 5 30 1 41 -12 9 -11 12
-12 8 -4 -7 13 -6 13 10 1 19 -16 31 -8 39 30 6 22 2 28 -28 42 -29 14 -36 23
-41 57 -4 22 -10 42 -13 45 -4 2 -24 -11 -44 -28z"/>
<path d="M3181 3824 c-18 -23 -21 -40 -21 -115 0 -49 4 -89 8 -89 5 0 18 10
30 23 19 20 22 35 22 103 0 98 -9 116 -39 78z"/>
<path d="M2920 3605 c0 -9 131 -77 137 -71 4 3 2 6 -3 6 -6 0 -36 16 -68 35
-59 35 -66 39 -66 30z"/>
<path d="M3752 3515 c-15 -19 -20 -42 -21 -106 l-2 -81 31 22 c16 12 30 24 31
28 12 100 8 162 -10 162 -5 0 -18 -11 -29 -25z"/>
<path d="M3118 3504 c30 -13 58 -22 63 -18 14 8 -1 26 -18 20 -8 -3 -30 1 -50
9 -57 24 -53 16 5 -11z"/>
<path d="M2778 3445 c-3 -3 -3 -24 -1 -46 5 -38 4 -41 -16 -34 -36 11 -23 -4
22 -25 36 -18 39 -18 22 -3 -18 15 -20 23 -12 56 9 36 0 66 -15 52z"/>
<path d="M3420 3370 c30 -16 60 -29 65 -29 6 0 -15 13 -45 29 -30 16 -59 29
-65 29 -5 0 15 -13 45 -29z"/>
<path d="M1110 3381 c0 -6 -33 -33 -74 -61 -72 -50 -73 -51 -80 -103 -9 -74
-7 -135 3 -141 5 -3 34 6 66 20 31 14 58 24 61 21 3 -3 6 -15 6 -28 1 -19 83
-159 93 -159 2 0 8 33 15 73 6 39 14 80 16 89 3 10 -2 19 -14 22 -10 4 -28 15
-40 27 -20 18 -22 30 -22 119 0 54 -3 105 -6 114 -7 17 -24 22 -24 7z"/>
<path d="M4026 3295 c-7 -72 -4 -85 24 -85 18 0 34 -25 25 -40 -2 -4 -31 -27
-64 -51 -66 -48 -71 -60 -71 -165 0 -62 -13 -92 -17 -38 0 15 -6 30 -13 34 -6
4 -11 10 -11 14 3 22 -2 28 -8 11 -7 -17 -9 -16 -15 12 -4 18 -12 35 -16 38
-10 6 -79 -35 -117 -69 -19 -16 -23 -31 -24 -80 -2 -102 -14 -122 -22 -37 -4
40 -10 78 -13 83 -4 5 -19 -3 -35 -18 -28 -27 -29 -31 -29 -127 l0 -98 28 19
c31 22 243 145 383 221 l96 53 -14 60 c-8 33 -11 63 -8 66 3 3 18 -7 33 -21
38 -36 45 -34 38 11 -4 20 -9 65 -12 99 -4 35 -10 60 -15 57 -5 -3 -6 2 -3 10
6 16 -53 59 -68 50 -4 -3 -8 1 -8 9 0 8 -8 21 -19 31 -17 16 -18 14 -25 -49z"/>
<path d="M2733 3275 c-10 -11 -9 -13 6 -12 11 1 17 7 14 14 -6 16 -5 16 -20
-2z"/>
<path d="M3262 3110 c0 -14 2 -19 5 -12 2 6 2 18 0 25 -3 6 -5 1 -5 -13z"/>
<path d="M808 2960 c47 -29 232 -121 232 -116 0 5 -249 136 -259 136 -3 0 9
-9 27 -20z"/>
<path d="M3133 2935 c0 -22 2 -30 4 -17 2 12 2 30 0 40 -3 9 -5 -1 -4 -23z"/>
<path d="M1090 2816 c0 -3 9 -10 20 -16 11 -6 20 -8 20 -6 0 3 -9 10 -20 16
-11 6 -20 8 -20 6z"/>
<path d="M1961 2783 c-1 -23 4 -45 9 -48 12 -8 12 42 0 70 -7 16 -9 11 -9 -22z"/>
<path d="M1220 2745 c0 -2 18 -14 40 -25 22 -11 40 -18 40 -15 0 2 -18 14 -40
25 -22 11 -40 18 -40 15z"/>
<path d="M3706 2715 c-11 -8 -17 -17 -14 -20 2 -3 13 4 23 15 21 23 18 25 -9
5z"/>
<path d="M954 2520 c0 -58 1 -81 3 -52 2 28 2 76 0 105 -2 28 -3 5 -3 -53z"/>
<path d="M2897 2579 c-8 -29 6 -45 21 -26 9 10 8 18 -2 32 -12 17 -13 17 -19
-6z"/>
<path d="M2481 2481 c-17 -24 -21 -44 -21 -114 0 -81 6 -97 35 -97 21 0 36
222 16 235 -5 3 -19 -8 -30 -24z"/>
<path d="M2063 2420 c0 -41 2 -58 4 -37 2 20 2 54 0 75 -2 20 -4 3 -4 -38z"/>
<path d="M2819 2453 c-9 -9 -33 -31 -53 -50 -30 -28 -36 -41 -36 -76 -1 -62
-4 -86 -10 -82 -3 2 -6 -14 -7 -36 0 -22 2 -39 6 -37 17 8 201 120 201 122 0
2 -9 29 -20 61 -11 32 -20 71 -20 87 0 23 -4 28 -22 27 -13 0 -30 -8 -39 -16z"/>
<path d="M4250 2410 c-9 -6 -10 -10 -3 -10 6 0 15 5 18 10 8 12 4 12 -15 0z"/>
<path d="M3057 2393 c-4 -3 -7 -11 -7 -17 0 -6 5 -5 12 2 6 6 9 14 7 17 -3 3
-9 2 -12 -2z"/>
<path d="M2500 2105 c14 -8 30 -14 35 -14 6 0 -1 6 -15 14 -14 8 -29 14 -35
14 -5 0 1 -6 15 -14z"/>
<path d="M815 1835 c-19 -15 -24 -24 -15 -24 8 0 29 11 45 24 19 16 24 25 15
25 -8 0 -28 -11 -45 -25z"/>
</g>
</svg>
