<svg width="36" height="36" viewBox="0 0 36 36" fill="none" xmlns="http://www.w3.org/2000/svg"><rect width="36" height="36" rx="50" fill="#E84142"/><rect width="36" height="36" rx="50" fill="url(#a)" fill-opacity=".5"/><path d="M7.988 28.301h4.035c.95 0 1.425 0 1.85-.117a3.047 3.047 0 0 0 1.24-.72c.325-.31.558-.718 1.019-1.524l.014-.025 5.233-9.252c.465-.812.695-1.22.797-1.65a3.032 3.032 0 0 0 0-1.42c-.101-.425-.333-.831-.791-1.631l-.01-.018-2.049-3.576c-.424-.746-.639-1.119-.91-1.257a1.028 1.028 0 0 0-.929 0c-.27.138-.485.51-.91 1.257L6.615 25.93c-.42.735-.629 1.103-.613 1.404.02.328.189.624.465.803.255.163.674.163 1.522.163Zm20.009 0h-5.783c-.853 0-1.282 0-1.532-.163a1.035 1.035 0 0 1-.465-.808c-.015-.298.196-.663.618-1.392l.01-.017 2.886-4.955c.424-.73.639-1.093.904-1.231.291-.148.634-.148.925 0 .264.134.47.481.876 1.169l.033.057 2.897 4.955.005.01.037.062c.401.692.606 1.046.591 1.338a1.022 1.022 0 0 1-.465.807c-.255.168-.684.168-1.537.168Z" fill="#fff"/><defs><radialGradient id="a" cx="0" cy="0" r="1" gradientUnits="userSpaceOnUse" gradientTransform="matrix(0 18 -18 0 18 18)"><stop stop-color="#fff"/><stop offset="1" stop-color="#E84142"/></radialGradient></defs></svg>