<svg width="36" height="36" viewBox="0 0 36 36" fill="none" xmlns="http://www.w3.org/2000/svg"><rect width="36" height="36" rx="50" fill="#546498"/><rect width="36" height="36" rx="50" fill="url(#546498)" fill-opacity=".5"/><path fill-rule="evenodd" clip-rule="evenodd" d="M18.307 6.047v-.012l-.003-.011c-.002-.008-.005-.016.003-.024h-.012a.078.078 0 0 1-.014.042l-.01.017c-.218.367-.44.733-.662 1.1-.221.366-.443.733-.662 1.1-.301.501-.605 1.004-.91 1.506a397.74 397.74 0 0 0-.91 1.508c-.326.544-.654 1.088-.982 1.632a460.75 460.75 0 0 0-.981 1.631l-.916 1.518v.001l-.917 1.52-.319.531.005.005-.017.007v.012a.287.287 0 0 1 .06.036c1.14.673 2.283 1.35 3.427 2.027 1.144.677 2.288 1.354 3.43 2.028.106.07.212.13.318.189l.006.006c.012.014.033.037.054.006-.018-.018-.016-.042-.014-.068l.002-.023v.032c0 .011 0 .047.035.047a.262.262 0 0 1 .06-.036l5.461-3.227 1.738-1.029-.012-.011-.004-.003a.423.423 0 0 0-.056-.1 3944.93 3944.93 0 0 0-5.231-8.692l-1.967-3.264Zm-.012 8.768a.112.112 0 0 1-.012.01v.003c.02-.008.012-.008.012-.008v-.005Zm-.012.021v.097c0-.03.001-.064.009-.093a.252.252 0 0 1-.01-.004Zm.021 14.925c0 .003-.002.006-.004.009a.041.041 0 0 0-.006.017h-.011c0-.014-.009-.024-.018-.035a.166.166 0 0 1-.018-.024l-1.099-1.548c-.367-.518-.733-1.035-1.1-1.55l-1.122-1.582-.001-.002-1.123-1.584-1.085-1.527-.003-.004-.003-.004-1.085-1.527a46.535 46.535 0 0 0-.283-.401v-.001c-.095-.133-.19-.266-.284-.402-.007-.015-.015-.025-.025-.039l-.022-.032c.035 0 .059.024.07.036.515.301 1.026.602 1.537.904a890.52 890.52 0 0 1 3.304 1.95c.59.35 1.177.698 1.769 1.047l.602.355v-.012c.249-.148.494-.293.74-.437l.739-.438c.739-.438 1.478-.874 2.217-1.31 1.175-.694 2.348-1.386 3.517-2.083.011.012.023 0 .035-.012h.012c0 .016-.01.032-.021.047a.232.232 0 0 0-.015.024l-3.263 4.6-.002.002a6097.795 6097.795 0 0 1-3.26 4.596c-.113.16-.228.32-.344.479l-.343.479c0 .003 0 .006-.002.009Z" fill="#fff"/><defs><radialGradient id="a" cx="0" cy="0" r="1" gradientUnits="userSpaceOnUse" gradientTransform="matrix(0 18 -18 0 18 18)"><stop stop-color="#fff"/><stop offset="1" stop-color="#546498"/></radialGradient></defs></svg>