<svg width="36" height="36" viewBox="0 0 36 36" fill="none" xmlns="http://www.w3.org/2000/svg"><rect width="36" height="36" rx="50" fill="#F80521"/><rect width="36" height="36" rx="50" fill="url(#a)" fill-opacity=".3"/><path d="M12.553 23.137c-.853 0-1.563-.16-2.133-.479a3.1 3.1 0 0 1-1.278-1.34c-.288-.578-.431-1.255-.431-2.03 0-.52.048-1.037.143-1.552a7.573 7.573 0 0 1 .438-1.49c.196-.483.442-.93.738-1.34.296-.41.645-.768 1.046-1.073a4.69 4.69 0 0 1 1.36-.725 5.25 5.25 0 0 1 1.696-.26c1.23 0 2.162.351 2.796 1.053.638.702.957 1.634.957 2.796 0 .52-.048 1.04-.144 1.559a7.69 7.69 0 0 1-.424 1.497 6.15 6.15 0 0 1-.717 1.333c-.292.41-.636.77-1.033 1.08a4.61 4.61 0 0 1-1.34.718 5.232 5.232 0 0 1-1.674.253Zm.232-2.208c.223 0 .438-.05.643-.15.205-.1.396-.242.574-.424a3.08 3.08 0 0 0 .485-.664 5.04 5.04 0 0 0 .376-.854c.105-.314.185-.65.24-1.005.054-.355.082-.725.082-1.107 0-.515-.11-.921-.329-1.217-.218-.296-.535-.444-.95-.444-.25 0-.485.056-.704.17a2.258 2.258 0 0 0-.608.472 3.57 3.57 0 0 0-.492.704c-.146.269-.272.56-.376.875-.1.315-.178.64-.233.978a6.88 6.88 0 0 0-.075 1.011c0 .36.05.663.15.91.105.246.258.432.458.56.205.123.458.185.76.185ZM18.548 23l2.112-9.994h2.55c.884 0 1.593.132 2.126.396.538.265.927.625 1.169 1.08.246.452.369.958.369 1.518 0 .597-.107 1.126-.321 1.586-.21.456-.51.84-.903 1.155-.387.31-.85.545-1.387.704a6.15 6.15 0 0 1-1.77.24h-.589L21.221 23h-2.673Zm3.835-5.503h.43c.283 0 .527-.061.732-.184.21-.123.371-.292.485-.506.114-.215.171-.456.171-.725a.96.96 0 0 0-.219-.615c-.14-.187-.376-.28-.704-.28h-.403l-.492 2.31Z" fill="#fff"/><defs><radialGradient id="a" cx="0" cy="0" r="1" gradientUnits="userSpaceOnUse" gradientTransform="matrix(0 18 -18 0 18 18)"><stop offset=".281" stop-color="#fff"/><stop offset="1" stop-color="#F80521"/></radialGradient></defs></svg>